HIERARCHY
ROOT Hips
{
	OFFSET 0.000000 0.000000 0.000000
	CHANNELS 6 Xposition Yposition Zposition Xrotation Yrotation Zrotation
	JOINT LeftUpLeg_virtual
	{
		OFFSET 0.000000 0.000000 0.000000
		CHANNELS 3 Xrotation Yrotation Zrotation
		JOINT LeftUpLeg
		{
			OFFSET 11.394100 -6.187798 -0.413800
			CHANNELS 3 Xrotation Yrotation Zrotation
			JOINT LeftLeg
			{
				OFFSET 0.430247 -32.302673 3.732800
				CHANNELS 3 Xrotation Yrotation Zrotation
				JOINT LeftFoot
				{
					OFFSET -0.430247 -48.264931 -6.423300
					CHANNELS 3 Xrotation Yrotation Zrotation
					JOINT LeftToeBase
					{
						OFFSET 4.230900 -16.068199 23.438400
						CHANNELS 3 Xrotation Yrotation Zrotation
						JOINT LeftToe_End
						{
							OFFSET 4.510700 0.695400 19.974600
							CHANNELS 3 Xrotation Yrotation Zrotation
							End Site
							{
								OFFSET 0 0 0
							}
						}
					}
				}
			}
		}
	}
	JOINT RightUpLeg_virtual
	{
		OFFSET 0.000000 0.000000 0.000000
		CHANNELS 3 Xrotation Yrotation Zrotation
		JOINT RightUpLeg
		{
			OFFSET -11.333700 -6.187798 -0.413800
			CHANNELS 3 Xrotation Yrotation Zrotation
			JOINT RightLeg
			{
				OFFSET -0.430392 -32.302628 3.733000
				CHANNELS 3 Xrotation Yrotation Zrotation
				JOINT RightFoot
				{
					OFFSET 0.430392 -48.264973 -6.423500
					CHANNELS 3 Xrotation Yrotation Zrotation
					JOINT RightToeBase
					{
						OFFSET -4.230900 -16.068199 23.438400
						CHANNELS 3 Xrotation Yrotation Zrotation
						JOINT RightToe_End
						{
							OFFSET -4.510700 0.695400 19.974600
							CHANNELS 3 Xrotation Yrotation Zrotation
							End Site
							{
								OFFSET 0 0 0
							}
						}
					}
				}
			}
		}
	}
	JOINT Spine_virtual
	{
		OFFSET 0.000000 0.000000 0.000000
		CHANNELS 3 Xrotation Yrotation Zrotation
		JOINT Spine
		{
			OFFSET -0.002400 12.777504 0.315300
			CHANNELS 3 Xrotation Yrotation Zrotation
			JOINT Spine1
			{
				OFFSET -0.002067 5.816869 0.032633
				CHANNELS 3 Xrotation Yrotation Zrotation
				JOINT Spine1_split
				{
					OFFSET -0.002067 5.816869 0.032633
					CHANNELS 3 Xrotation Yrotation Zrotation
					JOINT Spine2
					{
						OFFSET -0.002067 5.816869 0.032633
						CHANNELS 3 Xrotation Yrotation Zrotation
						JOINT Neck_virtual
						{
							OFFSET 0.000000 0.000000 0.000000
							CHANNELS 3 Xrotation Yrotation Zrotation
							JOINT Neck
							{
								OFFSET -0.003700 21.199493 -0.826900
								CHANNELS 3 Xrotation Yrotation Zrotation
								JOINT Head
								{
									OFFSET 0.000000 20.442200 4.834800
									CHANNELS 3 Xrotation Yrotation Zrotation
									JOINT HeadTop_End
									{
										OFFSET 0.000000 34.668396 4.968400
										CHANNELS 3 Xrotation Yrotation Zrotation
										End Site
										{
											OFFSET 0 0 0
										}
									}
								}
							}
						}
						JOINT LeftShoulder_virtual
						{
							OFFSET 0.000000 0.000000 0.000000
							CHANNELS 3 Xrotation Yrotation Zrotation
							JOINT LeftShoulder
							{
								OFFSET 3.288150 8.794197 -1.372250
								CHANNELS 3 Xrotation Yrotation Zrotation
								JOINT LeftShoulder_split
								{
									OFFSET 3.288150 8.794197 -1.372250
									CHANNELS 3 Xrotation Yrotation Zrotation
									JOINT LeftArm
									{
										OFFSET 11.953299 -2.279007 -0.146200
										CHANNELS 3 Xrotation Yrotation Zrotation
										JOINT LeftForeArm
										{
											OFFSET 18.448900 0.000000 0.000000
											CHANNELS 3 Xrotation Yrotation Zrotation
											JOINT LeftHand
											{
												OFFSET 29.527798 0.000000 0.000000
												CHANNELS 3 Xrotation Yrotation Zrotation
												End Site
												{
													OFFSET 0 0 0
												}
											}
										}
									}
								}
							}
						}
						JOINT RightShoulder_virtual
						{
							OFFSET 0.000000 0.000000 0.000000
							CHANNELS 3 Xrotation Yrotation Zrotation
							JOINT RightShoulder
							{
								OFFSET -3.249400 8.794197 -1.372250
								CHANNELS 3 Xrotation Yrotation Zrotation
								JOINT RightShoulder_split
								{
									OFFSET -3.249400 8.794197 -1.372250
									CHANNELS 3 Xrotation Yrotation Zrotation
									JOINT RightArm
									{
										OFFSET -11.953299 -2.279007 -0.146200
										CHANNELS 3 Xrotation Yrotation Zrotation
										JOINT RightForeArm
										{
											OFFSET -18.448900 0.000000 0.000000
											CHANNELS 3 Xrotation Yrotation Zrotation
											JOINT RightHand
											{
												OFFSET -29.527802 0.000000 0.000000
												CHANNELS 3 Xrotation Yrotation Zrotation
												End Site
												{
													OFFSET 0 0 0
												}
											}
										}
									}
								}
							}
						}
					}
				}
			}
		}
	}
}
MOTION
Frames: 8
Frame Time: 0.03333333
-0.094838 87.719887 -1.030968 0.000000 0.000000 0.000000 -14.105924 4.530666 -0.297369 -25.032657 -3.956555 14.213522 57.686555 0.162756 0.432416 -17.972456 -2.018378 -12.543666 -0.000027 -0.000002 -0.000002 0.000000 0.000000 0.000000 -14.105924 4.530666 -0.297369 -21.067800 -7.911020 -16.943490 57.213380 -0.422743 -0.460134 -20.835159 -3.273315 11.293784 -0.000043 -0.000002 -0.000000 0.000000 0.000000 0.000000 -14.105924 4.530666 -0.297369 20.016409 -0.021631 0.783882 6.967311 -0.338753 0.679832 0.000000 0.000000 0.000000 0.000000 0.000000 0.000000 6.967508 -0.337003 0.677442 -12.249458 -1.248218 -0.496002 -16.116683 -1.754211 -0.002246 0.000000 0.000000 0.000000 6.967508 -0.337003 0.677442 3.082225 -9.945126 -6.811324 0.000000 0.000000 0.000000 -13.959251 -7.908235 -60.295264 69.634229 -63.509080 71.597069 0.000000 0.000000 0.000000 6.967508 -0.337003 0.677442 8.709550 -2.418517 18.823131 0.000000 0.000000 0.000000 -21.494472 12.934317 56.855519 76.344173 65.516991 -70.724621 0.000000 0.000000 0.000000 
-0.045208 87.596878 -0.885662 0.000000 0.000000 0.000000 -14.124458 4.630904 -0.373064 -25.158186 -4.033193 14.308198 58.060180 0.169956 0.436003 -18.217375 -2.134162 -12.556866 -0.000027 -0.000002 -0.000002 0.000000 0.000000 0.000000 -14.124458 4.630904 -0.373064 -21.029775 -7.976172 -16.959863 57.422124 -0.428938 -0.463362 -21.035514 -3.284697 11.378194 -0.000043 -0.000002 -0.000000 0.000000 0.000000 0.000000 -14.124458 4.630904 -0.373064 20.011339 -0.007741 0.837991 6.966028 -0.327721 0.719249 0.000000 0.000000 0.000000 0.000000 0.000000 0.000000 6.966384 -0.324708 0.716456 -12.555790 -1.289426 -0.611312 -15.824414 -1.789684 -0.122986 0.000000 0.000000 0.000000 6.966384 -0.324708 0.716456 2.764792 -10.227419 -8.150478 0.000000 0.000000 0.000000 -14.313656 -7.958066 -56.721842 68.594354 -63.723356 67.966365 0.000000 0.000000 0.000000 6.966384 -0.324708 0.716456 8.718463 -2.429204 18.921154 0.000000 0.000000 0.000000 -21.496048 12.656101 56.308281 77.004017 65.942594 -71.153072 0.000000 0.000000 0.000000 
0.025537 87.469391 -0.703346 0.000000 0.000000 0.000000 -14.170106 4.929314 -0.471916 -25.274669 -4.351630 14.294371 58.483741 0.178431 0.440092 -18.484242 -2.186194 -12.565812 -0.000027 -0.000002 -0.000002 0.000000 0.000000 0.000000 -14.170106 4.929314 -0.471916 -20.848131 -8.167124 -16.966432 57.579123 -0.433961 -0.465747 -21.276497 -3.401761 11.488945 -0.000043 -0.000002 -0.000000 0.000000 0.000000 0.000000 -14.170106 4.929314 -0.471916 19.990272 0.021640 0.926397 6.937510 -0.293120 0.836672 0.000000 0.000000 0.000000 0.000000 0.000000 0.000000 6.937987 -0.289780 0.834064 -12.503191 -1.468268 -0.642171 -15.970663 -1.831690 -0.574226 0.000000 0.000000 0.000000 6.937987 -0.289780 0.834064 2.431006 -10.738115 -9.036978 0.000000 0.000000 0.000000 -14.974696 -8.818247 -52.449303 66.100119 -62.633736 61.042439 0.000000 0.000000 0.000000 6.937987 -0.289780 0.834064 8.767412 -2.495619 19.020521 0.000000 0.000000 0.000000 -21.838849 11.822603 55.109842 78.559101 66.918225 -72.239550 0.000000 0.000000 0.000000 
0.096355 87.431274 -0.463856 0.000000 0.000000 0.000000 -14.235181 5.626327 -0.651633 -25.285804 -5.071310 14.175983 58.760356 0.186985 0.443155 -18.689346 -2.208410 -12.580231 -0.000027 -0.000001 -0.000002 0.000000 0.000000 0.000000 -14.235181 5.626327 -0.651633 -20.327095 -8.834483 -16.970614 57.397741 -0.426806 -0.462295 -21.507554 -3.555189 11.590869 -0.000043 -0.000002 -0.000000 0.000000 0.000000 0.000000 -14.235181 5.626327 -0.651633 19.928899 0.024897 1.135679 6.839932 -0.351178 1.068726 0.000000 0.000000 0.000000 0.000000 0.000000 0.000000 6.840728 -0.346986 1.066124 -11.868278 -1.759280 -0.434148 -16.871865 -1.816974 -1.274528 0.000000 0.000000 0.000000 6.840728 -0.346986 1.066124 2.111459 -11.543114 -9.212458 0.000000 0.000000 0.000000 -15.811275 -10.260029 -48.386614 61.977014 -60.070653 50.772133 0.000000 0.000000 0.000000 6.840728 -0.346986 1.066124 8.956366 -2.757027 19.125571 0.000000 0.000000 0.000000 -23.419079 9.145775 51.563560 83.811455 69.708515 -76.139329 0.000000 0.000000 0.000000 
0.181541 87.594261 -0.131302 0.000000 0.000000 0.000000 -14.240836 7.146425 -0.905717 -25.170644 -6.591755 13.705761 58.664577 0.191125 0.443060 -18.710724 -2.119388 -12.575788 -0.000027 -0.000002 -0.000002 0.000000 0.000000 0.000000 -14.240836 7.146425 -0.905717 -19.237994 -10.422829 -17.039657 56.511687 -0.397699 -0.447097 -21.678997 -3.797183 11.692611 -0.000043 -0.000002 -0.000000 0.000000 0.000000 0.000000 -14.240836 7.146425 -0.905717 19.832704 -0.086119 1.505664 6.679608 -0.664823 1.500897 0.000000 0.000000 0.000000 0.000000 0.000000 0.000000 6.680941 -0.660218 1.497984 -11.358410 -2.140447 -0.267526 -17.521144 -1.927238 -1.898977 0.000000 0.000000 0.000000 6.680941 -0.660218 1.497984 1.789836 -12.847862 -9.248319 0.000000 0.000000 0.000000 -16.587439 -11.925816 -44.313516 58.095936 -56.142369 39.239082 0.000000 0.000000 0.000000 6.680941 -0.660218 1.497984 9.320065 -3.255911 19.377701 0.000000 0.000000 0.000000 -26.545511 4.429800 44.221397 98.063669 74.446685 -87.427309 0.000000 0.000000 0.000000 
0.332882 88.008820 0.317097 0.000000 0.000000 0.000000 -14.052061 9.700055 -0.908286 -25.033567 -8.880801 12.446747 57.974769 0.177496 0.436510 -18.437409 -1.919459 -12.463814 -0.000027 -0.000002 -0.000002 0.000000 0.000000 0.000000 -14.052061 9.700055 -0.908286 -17.674419 -12.919502 -17.471491 54.846395 -0.357173 -0.420492 -21.778567 -4.237795 11.884930 -0.000043 -0.000002 -0.000000 0.000000 0.000000 0.000000 -14.052061 9.700055 -0.908286 19.731599 -0.431586 1.943126 6.504435 -1.431120 1.882393 0.000000 0.000000 0.000000 0.000000 0.000000 0.000000 6.507064 -1.425644 1.878500 -11.121220 -2.676902 0.656104 -18.078315 -1.819530 -2.833731 0.000000 0.000000 0.000000 6.507064 -1.425644 1.878500 1.588962 -13.978037 -8.328295 0.000000 0.000000 0.000000 -17.057002 -13.550107 -41.040284 56.173245 -51.841914 28.627790 0.000000 0.000000 0.000000 6.507064 -1.425644 1.878500 9.792470 -3.914209 19.480524 0.000000 0.000000 0.000000 -31.132685 -0.339092 35.023444 124.315549 78.102079 -109.822099 0.000000 0.000000 0.000000 
0.488858 88.673958 0.878460 0.000000 0.000000 0.000000 -13.563612 12.857992 -0.586105 -24.923265 -11.355188 10.697838 56.536553 0.144975 0.422174 -17.860052 -1.832757 -12.289699 -0.000027 -0.000003 -0.000002 0.000000 0.000000 0.000000 -13.563612 12.857992 -0.586105 -15.964970 -15.989849 -18.179452 52.508660 -0.310122 -0.384251 -21.758041 -4.778379 12.117111 -0.000043 -0.000002 -0.000000 0.000000 0.000000 0.000000 -13.563612 12.857992 -0.586105 19.558445 -0.866155 2.325624 6.178182 -2.345257 2.098795 0.000000 0.000000 0.000000 0.000000 0.000000 0.000000 6.182867 -2.338604 2.094053 -10.676281 -3.576427 1.858446 -18.623902 -1.977130 -3.788983 0.000000 0.000000 0.000000 6.182867 -2.338604 2.094053 1.404415 -15.136531 -7.787819 0.000000 0.000000 0.000000 -17.214679 -14.704900 -38.224481 55.783934 -48.087961 19.885759 0.000000 0.000000 0.000000 6.182867 -2.338604 2.094053 10.461294 -5.010223 18.057337 0.000000 0.000000 0.000000 -40.871026 -3.435842 27.351752 152.786796 78.755804 -135.528042 0.000000 0.000000 0.000000 
0.663095 89.570595 1.523041 0.000000 0.000000 0.000000 -12.712994 15.841246 -0.154769 -24.764207 -13.208473 9.128573 54.346473 0.095622 0.399881 -17.077974 -2.088156 -12.054971 -0.000027 -0.000002 -0.000002 0.000000 0.000000 0.000000 -12.712994 15.841246 -0.154769 -14.410825 -19.163069 -18.911576 49.573516 -0.259406 -0.339469 -21.477318 -5.117565 12.355206 -0.000043 -0.000002 -0.000000 0.000000 0.000000 0.000000 -12.712994 15.841246 -0.154769 19.338180 -1.194741 2.556556 5.743333 -3.020434 2.099366 0.000000 0.000000 0.000000 0.000000 0.000000 0.000000 5.750168 -3.012931 2.094079 -10.735765 -5.007601 3.086227 -18.524926 -2.634065 -4.823202 0.000000 0.000000 0.000000 5.750168 -3.012931 2.094079 1.157930 -16.207660 -8.247225 0.000000 0.000000 0.000000 -16.888985 -14.699107 -35.891719 56.496555 -45.151092 14.414158 0.000000 0.000000 0.000000 5.750168 -3.012931 2.094079 11.395061 -7.137734 13.109343 0.000000 0.000000 0.000000 -62.270377 -4.963859 26.779946 167.974665 77.950531 -151.569930 0.000000 0.000000 0.000000 
